# xmcd
# 
# Track frame offsets:
#     150
#     14997
#     33058
#     47503
#     62206
#     76005
#     89663
#     105534
#     119829
#     133236
# 
# Disc length: 1989
# 
# Revision: 0
# Processed by: cddbd v1.5.2PL0 Copyright (c) Steve Scherf et al.
# Submitted via: BonkEnc v1.0.6
# 
DISCID=8807c30a
DTITLE=T. Graham Brown - Come As You Are
DYEAR=2006
DGENRE=Country
TTITLE0=Darlene
TTITLE1=Don't Go To Strangers
TTITLE2=Hell And High Water
TTITLE3=She Couldn't Love Me Anymore
TTITLE4=I Wish I Could Hurt
TTITLE5=I Tell It Like It Use To Be
TTITLE6=The Last Resort
TTITLE7=Come As You Are
TTITLE8=Brilliant Conversationalist
TTITLE9=Power Of Love
EXTD=
EXTT0=
EXTT1=
EXTT2=
EXTT3=
EXTT4=
EXTT5=
EXTT6=
EXTT7=
EXTT8=
EXTT9=
PLAYORDER=
